<mxfile host="65bd71144e">
    <diagram name="Konto" id="0cNxYirCoF3FAIngxuJC">
        <mxGraphModel dx="656" dy="444" grid="1" gridSize="10" guides="1" tooltips="1" connect="1" arrows="1" fold="1" page="1" pageScale="1" pageWidth="827" pageHeight="1169" math="0" shadow="0">
            <root>
                <mxCell id="2RfNIHYXHJ-OlTvXYvh6-0"/>
                <mxCell id="2RfNIHYXHJ-OlTvXYvh6-1" parent="2RfNIHYXHJ-OlTvXYvh6-0"/>
                <mxCell id="2RfNIHYXHJ-OlTvXYvh6-2" value="Konto" style="swimlane;fontStyle=1;align=center;verticalAlign=top;childLayout=stackLayout;horizontal=1;startSize=26;horizontalStack=0;resizeParent=1;resizeParentMax=0;resizeLast=0;collapsible=1;marginBottom=0;" parent="2RfNIHYXHJ-OlTvXYvh6-1" vertex="1">
                    <mxGeometry x="530" y="80" width="210" height="216" as="geometry">
                        <mxRectangle x="500" y="110" width="100" height="26" as="alternateBounds"/>
                    </mxGeometry>
                </mxCell>
                <mxCell id="2RfNIHYXHJ-OlTvXYvh6-5" value="- kontostandAnfang: int" style="text;strokeColor=none;fillColor=none;align=left;verticalAlign=top;spacingLeft=4;spacingRight=4;overflow=hidden;rotatable=0;points=[[0,0.5],[1,0.5]];portConstraint=eastwest;" parent="2RfNIHYXHJ-OlTvXYvh6-2" vertex="1">
                    <mxGeometry y="26" width="210" height="26" as="geometry"/>
                </mxCell>
                <mxCell id="1" value="- multiplikatorGeld: int" style="text;strokeColor=none;fillColor=none;align=left;verticalAlign=top;spacingLeft=4;spacingRight=4;overflow=hidden;rotatable=0;points=[[0,0.5],[1,0.5]];portConstraint=eastwest;" parent="2RfNIHYXHJ-OlTvXYvh6-2" vertex="1">
                    <mxGeometry y="52" width="210" height="26" as="geometry"/>
                </mxCell>
                <mxCell id="2RfNIHYXHJ-OlTvXYvh6-6" value="" style="line;strokeWidth=1;fillColor=none;align=left;verticalAlign=middle;spacingTop=-1;spacingLeft=3;spacingRight=3;rotatable=0;labelPosition=right;points=[];portConstraint=eastwest;" parent="2RfNIHYXHJ-OlTvXYvh6-2" vertex="1">
                    <mxGeometry y="78" width="210" height="8" as="geometry"/>
                </mxCell>
                <mxCell id="2RfNIHYXHJ-OlTvXYvh6-7" value="+ Konto(int)" style="text;strokeColor=none;fillColor=none;align=left;verticalAlign=top;spacingLeft=4;spacingRight=4;overflow=hidden;rotatable=0;points=[[0,0.5],[1,0.5]];portConstraint=eastwest;" parent="2RfNIHYXHJ-OlTvXYvh6-2" vertex="1">
                    <mxGeometry y="86" width="210" height="26" as="geometry"/>
                </mxCell>
                <mxCell id="2RfNIHYXHJ-OlTvXYvh6-9" value="+ getKontostandAnfang(): int" style="text;strokeColor=none;fillColor=none;align=left;verticalAlign=top;spacingLeft=4;spacingRight=4;overflow=hidden;rotatable=0;points=[[0,0.5],[1,0.5]];portConstraint=eastwest;" parent="2RfNIHYXHJ-OlTvXYvh6-2" vertex="1">
                    <mxGeometry y="112" width="210" height="26" as="geometry"/>
                </mxCell>
                <mxCell id="0" value="+ setKontostandAnfang(int): void" style="text;strokeColor=none;fillColor=none;align=left;verticalAlign=top;spacingLeft=4;spacingRight=4;overflow=hidden;rotatable=0;points=[[0,0.5],[1,0.5]];portConstraint=eastwest;" parent="2RfNIHYXHJ-OlTvXYvh6-2" vertex="1">
                    <mxGeometry y="138" width="210" height="26" as="geometry"/>
                </mxCell>
                <mxCell id="2" value="+ getMultiplikatorGeld(): int" style="text;strokeColor=none;fillColor=none;align=left;verticalAlign=top;spacingLeft=4;spacingRight=4;overflow=hidden;rotatable=0;points=[[0,0.5],[1,0.5]];portConstraint=eastwest;" parent="2RfNIHYXHJ-OlTvXYvh6-2" vertex="1">
                    <mxGeometry y="164" width="210" height="26" as="geometry"/>
                </mxCell>
                <mxCell id="3" value="+ setMultiplikatorGeld(int): void" style="text;strokeColor=none;fillColor=none;align=left;verticalAlign=top;spacingLeft=4;spacingRight=4;overflow=hidden;rotatable=0;points=[[0,0.5],[1,0.5]];portConstraint=eastwest;" parent="2RfNIHYXHJ-OlTvXYvh6-2" vertex="1">
                    <mxGeometry y="190" width="210" height="26" as="geometry"/>
                </mxCell>
                <mxCell id="4" value="App" style="swimlane;fontStyle=1;align=center;verticalAlign=top;childLayout=stackLayout;horizontal=1;startSize=26;horizontalStack=0;resizeParent=1;resizeParentMax=0;resizeLast=0;collapsible=1;marginBottom=0;" parent="2RfNIHYXHJ-OlTvXYvh6-1" vertex="1">
                    <mxGeometry x="290" y="80" width="160" height="86" as="geometry"/>
                </mxCell>
                <mxCell id="6" value="" style="line;strokeWidth=1;fillColor=none;align=left;verticalAlign=middle;spacingTop=-1;spacingLeft=3;spacingRight=3;rotatable=0;labelPosition=right;points=[];portConstraint=eastwest;strokeColor=inherit;" parent="4" vertex="1">
                    <mxGeometry y="26" width="160" height="8" as="geometry"/>
                </mxCell>
                <mxCell id="7" value="+ main(String): void" style="text;strokeColor=none;fillColor=none;align=left;verticalAlign=top;spacingLeft=4;spacingRight=4;overflow=hidden;rotatable=0;points=[[0,0.5],[1,0.5]];portConstraint=eastwest;" parent="4" vertex="1">
                    <mxGeometry y="34" width="160" height="26" as="geometry"/>
                </mxCell>
                <mxCell id="8" value="- output(String): void" style="text;strokeColor=none;fillColor=none;align=left;verticalAlign=top;spacingLeft=4;spacingRight=4;overflow=hidden;rotatable=0;points=[[0,0.5],[1,0.5]];portConstraint=eastwest;" vertex="1" parent="4">
                    <mxGeometry y="60" width="160" height="26" as="geometry"/>
                </mxCell>
                <mxCell id="9" value="" style="endArrow=open;endFill=1;endSize=12;html=1;exitX=1;exitY=0.5;exitDx=0;exitDy=0;entryX=-0.022;entryY=0.795;entryDx=0;entryDy=0;entryPerimeter=0;" edge="1" parent="2RfNIHYXHJ-OlTvXYvh6-1" source="7" target="2RfNIHYXHJ-OlTvXYvh6-5">
                    <mxGeometry width="160" relative="1" as="geometry">
                        <mxPoint x="440" y="230" as="sourcePoint"/>
                        <mxPoint x="600" y="230" as="targetPoint"/>
                    </mxGeometry>
                </mxCell>
            </root>
        </mxGraphModel>
    </diagram>
    <diagram name="App / Konto" id="rIq06EN41jE3vTcPL47a">
        <mxGraphModel dx="544" dy="352" grid="1" gridSize="10" guides="1" tooltips="1" connect="1" arrows="1" fold="1" page="1" pageScale="1" pageWidth="827" pageHeight="1169" math="0" shadow="0">
            <root>
                <mxCell id="-F6rtsNmkIE3war42C6L-0"/>
                <mxCell id="-F6rtsNmkIE3war42C6L-1" parent="-F6rtsNmkIE3war42C6L-0"/>
                <mxCell id="-F6rtsNmkIE3war42C6L-2" value="Konto" style="swimlane;fontStyle=1;align=center;verticalAlign=top;childLayout=stackLayout;horizontal=1;startSize=26;horizontalStack=0;resizeParent=1;resizeParentMax=0;resizeLast=0;collapsible=1;marginBottom=0;" parent="-F6rtsNmkIE3war42C6L-1" vertex="1">
                    <mxGeometry x="280" y="120" width="210" height="138" as="geometry">
                        <mxRectangle x="500" y="110" width="100" height="26" as="alternateBounds"/>
                    </mxGeometry>
                </mxCell>
                <mxCell id="-F6rtsNmkIE3war42C6L-3" value="- kontostand: int" style="text;strokeColor=none;fillColor=none;align=left;verticalAlign=top;spacingLeft=4;spacingRight=4;overflow=hidden;rotatable=0;points=[[0,0.5],[1,0.5]];portConstraint=eastwest;" parent="-F6rtsNmkIE3war42C6L-2" vertex="1">
                    <mxGeometry y="26" width="210" height="26" as="geometry"/>
                </mxCell>
                <mxCell id="-F6rtsNmkIE3war42C6L-4" value="" style="line;strokeWidth=1;fillColor=none;align=left;verticalAlign=middle;spacingTop=-1;spacingLeft=3;spacingRight=3;rotatable=0;labelPosition=right;points=[];portConstraint=eastwest;" parent="-F6rtsNmkIE3war42C6L-2" vertex="1">
                    <mxGeometry y="52" width="210" height="8" as="geometry"/>
                </mxCell>
                <mxCell id="-F6rtsNmkIE3war42C6L-5" value="+ Konto(int)" style="text;strokeColor=none;fillColor=none;align=left;verticalAlign=top;spacingLeft=4;spacingRight=4;overflow=hidden;rotatable=0;points=[[0,0.5],[1,0.5]];portConstraint=eastwest;" parent="-F6rtsNmkIE3war42C6L-2" vertex="1">
                    <mxGeometry y="60" width="210" height="26" as="geometry"/>
                </mxCell>
                <mxCell id="-F6rtsNmkIE3war42C6L-6" value="+ getKontostand(): int" style="text;strokeColor=none;fillColor=none;align=left;verticalAlign=top;spacingLeft=4;spacingRight=4;overflow=hidden;rotatable=0;points=[[0,0.5],[1,0.5]];portConstraint=eastwest;" parent="-F6rtsNmkIE3war42C6L-2" vertex="1">
                    <mxGeometry y="86" width="210" height="26" as="geometry"/>
                </mxCell>
                <mxCell id="-F6rtsNmkIE3war42C6L-7" value="+ setKontostand(int): void" style="text;strokeColor=none;fillColor=none;align=left;verticalAlign=top;spacingLeft=4;spacingRight=4;overflow=hidden;rotatable=0;points=[[0,0.5],[1,0.5]];portConstraint=eastwest;" parent="-F6rtsNmkIE3war42C6L-2" vertex="1">
                    <mxGeometry y="112" width="210" height="26" as="geometry"/>
                </mxCell>
                <mxCell id="-F6rtsNmkIE3war42C6L-8" value="App" style="swimlane;fontStyle=3;align=center;verticalAlign=top;childLayout=stackLayout;horizontal=1;startSize=26;horizontalStack=0;resizeParent=1;resizeParentMax=0;resizeLast=0;collapsible=1;marginBottom=0;" parent="-F6rtsNmkIE3war42C6L-1" vertex="1">
                    <mxGeometry x="60" y="120" width="140" height="86" as="geometry">
                        <mxRectangle x="500" y="110" width="100" height="26" as="alternateBounds"/>
                    </mxGeometry>
                </mxCell>
                <mxCell id="-F6rtsNmkIE3war42C6L-10" value="" style="line;strokeWidth=1;fillColor=none;align=left;verticalAlign=middle;spacingTop=-1;spacingLeft=3;spacingRight=3;rotatable=0;labelPosition=right;points=[];portConstraint=eastwest;" parent="-F6rtsNmkIE3war42C6L-8" vertex="1">
                    <mxGeometry y="26" width="140" height="8" as="geometry"/>
                </mxCell>
                <mxCell id="-F6rtsNmkIE3war42C6L-11" value="+ main(String[]):void" style="text;strokeColor=none;fillColor=none;align=left;verticalAlign=top;spacingLeft=4;spacingRight=4;overflow=hidden;rotatable=0;points=[[0,0.5],[1,0.5]];portConstraint=eastwest;fontStyle=2" parent="-F6rtsNmkIE3war42C6L-8" vertex="1">
                    <mxGeometry y="34" width="140" height="26" as="geometry"/>
                </mxCell>
                <mxCell id="-F6rtsNmkIE3war42C6L-12" value="+ output(String): void" style="text;strokeColor=none;fillColor=none;align=left;verticalAlign=top;spacingLeft=4;spacingRight=4;overflow=hidden;rotatable=0;points=[[0,0.5],[1,0.5]];portConstraint=eastwest;fontStyle=2" parent="-F6rtsNmkIE3war42C6L-8" vertex="1">
                    <mxGeometry y="60" width="140" height="26" as="geometry"/>
                </mxCell>
                <mxCell id="-F6rtsNmkIE3war42C6L-14" value="" style="edgeStyle=none;html=1;entryX=0;entryY=0.5;entryDx=0;entryDy=0;exitX=1.006;exitY=0.188;exitDx=0;exitDy=0;exitPerimeter=0;" parent="-F6rtsNmkIE3war42C6L-1" source="-F6rtsNmkIE3war42C6L-11" target="-F6rtsNmkIE3war42C6L-3" edge="1">
                    <mxGeometry relative="1" as="geometry"/>
                </mxCell>
            </root>
        </mxGraphModel>
    </diagram>
</mxfile>